<svg viewBox="0 0 46 44" fill="none" xmlns="http://www.w3.org/2000/svg">
<path d="M24.3451 1.33615C24.0924 0.824148 23.5709 0.5 22.9999 0.5C22.429 0.5 21.9075 0.824148 21.6548 1.33615L15.5382 13.7298L1.86101 15.7172C1.29598 15.7993 0.826556 16.1951 0.650119 16.7381C0.473682 17.2811 0.620827 17.8772 1.02969 18.2758L10.9266 27.9229L8.59026 41.5448C8.49374 42.1076 8.72507 42.6763 9.18699 43.0119C9.64891 43.3475 10.2613 43.3918 10.7667 43.1261L22.9999 36.6947L35.2332 43.1261C35.7386 43.3918 36.351 43.3475 36.8129 43.0119C37.2748 42.6763 37.5062 42.1076 37.4096 41.5448L35.0733 27.9229L44.9702 18.2758C45.3791 17.8772 45.5262 17.2811 45.3498 16.7381C45.1733 16.1951 44.7039 15.7993 44.1389 15.7172L30.4617 13.7298L24.3451 1.33615Z" fill="#EBEBEB"/>
</svg>
